<?xml version="1.0" encoding="UTF-8" standalone="no"?>
<!-- Created with Inkscape (http://www.inkscape.org/) -->

<svg
   xmlns:dc="http://purl.org/dc/elements/1.1/"
   xmlns:cc="http://creativecommons.org/ns#"
   xmlns:rdf="http://www.w3.org/1999/02/22-rdf-syntax-ns#"
   xmlns:svg="http://www.w3.org/2000/svg"
   xmlns="http://www.w3.org/2000/svg"
   xmlns:sodipodi="http://sodipodi.sourceforge.net/DTD/sodipodi-0.dtd"
   xmlns:inkscape="http://www.inkscape.org/namespaces/inkscape"
   width="441.74438"
   height="211.66998"
   id="svg2"
   version="1.1"
   inkscape:version="0.48.3.1 r9886"
   sodipodi:docname="charpi.svg">
  <defs
     id="defs4" />
  <sodipodi:namedview
     id="base"
     pagecolor="#ffffff"
     bordercolor="#666666"
     borderopacity="1.0"
     inkscape:pageopacity="0.0"
     inkscape:pageshadow="2"
     inkscape:zoom="0.49497475"
     inkscape:cx="273.25659"
     inkscape:cy="25.273113"
     inkscape:document-units="px"
     inkscape:current-layer="layer1"
     showgrid="false"
     inkscape:window-width="967"
     inkscape:window-height="847"
     inkscape:window-x="541"
     inkscape:window-y="96"
     inkscape:window-maximized="0"
     fit-margin-top="0"
     fit-margin-left="0"
     fit-margin-right="0"
     fit-margin-bottom="0" />
  <metadata
     id="metadata7">
    <rdf:RDF>
      <cc:Work
         rdf:about="">
        <dc:format>image/svg+xml</dc:format>
        <dc:type
           rdf:resource="http://purl.org/dc/dcmitype/StillImage" />
        <dc:title />
      </cc:Work>
    </rdf:RDF>
  </metadata>
  <g
     inkscape:label="Layer 1"
     inkscape:groupmode="layer"
     id="layer1"
     transform="translate(-156.38176,-355.22927)">
    <path
       style="fill:#000000"
       d="m 247.10714,566.0181 c -1.2375,-0.60742 -2.25,-1.48564 -2.25,-1.95159 0,-0.46596 -0.69099,-0.84719 -1.53554,-0.84719 -1.69355,0 -4.19585,-5.25134 -6.90933,-14.5 -0.96819,-3.3 -2.1459,-7.125 -2.61712,-8.5 -0.47122,-1.375 -1.14712,-4.17147 -1.502,-6.21437 -0.77955,-4.48766 -2.90914,-6.60774 -5.19133,-5.16817 -0.87323,0.55081 -1.66101,1.99687 -1.75064,3.21346 -0.18553,2.51835 -2.72747,5.12089 -6.74404,6.90481 -1.69024,0.75071 -2.75,2.00039 -2.75,3.24283 0,1.11179 -0.64053,2.02144 -1.4234,2.02144 -0.78288,0 -3.44556,1.54355 -5.91708,3.4301 -2.47153,1.88656 -5.99349,3.83875 -7.8266,4.3382 -8.32951,2.26948 -25.36775,0.84411 -30.72442,-2.57033 -4.366,-2.78295 -11.1085,-10.15945 -11.1085,-12.15302 0,-1.03306 -0.46907,-2.03464 -1.04238,-2.22574 -2.34428,-0.78143 -1.63033,-30.42351 0.82438,-34.22725 0.38758,-0.60058 0.77755,-1.99196 0.86659,-3.09196 0.16314,-2.01526 2.59934,-9.29436 4.3509,-13 0.51994,-1.1 1.89196,-4.46593 3.04893,-7.47984 1.15697,-3.01391 4.20688,-8.57047 6.77758,-12.34791 2.5707,-3.77743 5.124,-7.60113 5.674,-8.49712 2.07603,-3.38197 8.46719,-7.05015 13.28268,-7.62353 1.49453,-0.17796 2.71732,-0.41237 2.71732,-0.52091 0,-0.95937 5.66753,-0.39421 9.09538,0.90697 8.83823,3.35493 15.84794,12.93949 13.91573,19.02735 -0.32586,1.02667 -0.12416,2.1561 0.44821,2.50985 1.18898,0.73483 1.42502,8.80764 0.29068,9.94145 -0.4125,0.41231 -0.82695,1.72481 -0.92101,2.91667 -0.33309,4.2209 -1.01136,5.9629 -3.21192,8.24929 -1.69301,1.75903 -2.75191,2.11796 -4.4216,1.49879 -2.01912,-0.74876 -2.2066,-1.52771 -2.33399,-9.69761 -0.16126,-10.3416 -0.55413,-12.9761 -2.17709,-14.59906 -0.65142,-0.65142 -1.18439,-1.69965 -1.18439,-2.3294 0,-1.82189 -3.79777,-4.7631 -5.21275,-4.03705 -4.12549,2.11684 -6.1722,3.65301 -8.82317,6.62229 -1.63024,1.82599 -2.96408,3.69283 -2.96408,4.14854 0,0.4557 -1.35,2.69217 -3,4.96993 -1.65,2.27776 -3,4.89402 -3,5.81392 0,0.9199 -1.97237,5.725 -4.38305,10.678 -2.41068,4.953 -4.69983,10.88048 -5.08701,13.17218 -0.38718,2.2917 -1.08431,4.40178 -1.54917,4.68908 -0.87185,0.53884 -0.43254,10.48935 0.60781,13.76722 0.32267,1.01663 2.77485,4.19948 5.44928,7.07299 l 4.86261,5.22457 6.29977,-0.33225 c 9.50607,-0.50136 11.88978,-1.64869 18.38406,-8.84867 3.25363,-3.60719 7.61745,-8.38909 9.69736,-10.62645 2.07992,-2.23735 4.54903,-5.46322 5.48692,-7.1686 0.93788,-1.70538 2.43016,-4.00069 3.31618,-5.10069 3.04743,-3.78345 4.86774,-10.43844 5.43258,-19.86132 0.3113,-5.19337 0.99725,-10.94617 1.52433,-12.78399 0.52708,-1.83782 0.95833,-5.19695 0.95833,-7.46474 0,-2.26778 0.92639,-6.3524 2.05865,-9.07692 1.67228,-4.02394 2.75147,-5.21173 5.75,-6.32864 6.18353,-2.30326 10.19135,-1.51528 10.19135,2.00374 0,2.35513 1.8905,6.91715 3.82948,9.24102 1.26443,1.51543 1.24707,1.80424 -0.14046,2.33669 -1.91343,0.73425 -3.51853,8.66617 -3.32561,16.43416 0.15058,6.06346 -0.31149,5.80758 8.13659,4.50572 2.2,-0.33902 5.30465,-1.0415 6.89922,-1.56106 1.59458,-0.51956 4.6462,-0.94466 6.78139,-0.94466 2.19968,0 4.07668,-0.54173 4.331,-1.25 0.24687,-0.6875 0.6452,-5.975 0.88518,-11.75 0.58007,-13.9587 3.54266,-22.65866 8.40345,-24.67761 5.21761,-2.16716 8.57932,-2.23004 11.84629,-0.22158 4.56261,2.80499 6.60738,6.54398 7.02496,12.84559 0.20241,3.05448 0.50198,7.1286 0.66572,9.0536 0.31073,3.65325 -1.73649,10 -3.22563,10 -1.61851,0 -2.25496,6.50019 -2.67638,27.33434 -0.23177,11.45888 -0.60815,21.13648 -0.83638,21.50577 -0.22823,0.36928 0.44366,2.43669 1.49311,4.59422 1.04944,2.15754 1.90807,5.86744 1.90807,8.24423 0,5.54441 1.6072,5.55918 5.44846,0.0501 1.62166,-2.32576 3.51796,-4.57945 4.21402,-5.0082 0.85129,-0.52438 0.9921,-1.50638 0.43016,-3 -1.3728,-3.64888 -0.14002,-9.02551 2.59967,-11.33818 2.65739,-2.24319 5.05986,-9.9274 5.82367,-18.62679 1.56096,-17.77844 5.32931,-40.75549 6.6841,-40.75549 0.43995,0 0.79992,-1.65555 0.79992,-3.679 0,-6.46607 1.95946,-10.22277 5.69793,-10.92411 1.81614,-0.34071 3.30207,-1.01939 3.30207,-1.50818 0,-0.48879 1.09468,-0.88871 2.43261,-0.88871 1.65205,0 2.65354,0.72197 3.12111,2.25 0.37867,1.2375 2.23349,4.42264 4.12183,7.07809 1.88833,2.65546 3.80628,5.80902 4.2621,7.00792 0.45582,1.1989 2.12622,4.42626 3.712,7.17191 1.58578,2.74564 3.94482,7.46708 5.24232,10.49208 1.29749,3.025 3.07342,7.12109 3.94652,9.10242 1.81829,4.12629 6.50777,7.8813 9.02166,7.2239 1.25998,-0.32949 2.30854,-3.11913 3.99801,-10.63647 1.25956,-5.60442 3.6859,-12.88985 5.39187,-16.18985 3.89324,-7.531 10.68812,-16.65626 11.86227,-15.93059 0.48824,0.30174 0.8877,0.12666 0.8877,-0.38907 0,-0.51574 1.4625,-1.48224 3.25,-2.14779 1.7875,-0.66556 4.375,-1.79319 5.75,-2.50586 4.51106,-2.3381 8.3093,-2.5756 12.0755,-0.75505 3.93969,1.9044 9.9245,8.18222 9.9245,10.41038 0,0.77989 0.47479,1.89277 1.0551,2.47308 0.5803,0.5803 1.26853,3.4828 1.52939,6.45 0.26086,2.96719 0.71099,6.1654 1.0003,7.10713 0.2893,0.94172 -0.0376,2.74172 -0.72645,4 -0.68885,1.25827 -1.41786,5.43777 -1.62001,9.28777 -0.27431,5.22411 -0.86573,7.53138 -2.33121,9.09454 -2.28393,2.43617 -1.67115,5.1142 1.47926,6.46477 1.16249,0.49836 3.91362,2.04598 6.11362,3.43915 2.2,1.39318 4.7726,2.79955 5.71688,3.12527 0.94429,0.32572 1.98711,1.44362 2.31739,2.48424 0.65303,2.05751 1.99161,2.46819 2.95645,0.90705 0.33481,-0.54174 0.0511,-4.70424 -0.63044,-9.25 -0.68156,-4.54576 -1.14723,-10.29386 -1.03483,-12.77356 0.1124,-2.4797 -0.19455,-6.64383 -0.68212,-9.25363 -0.95563,-5.11527 0.79186,-13.68072 4.27604,-20.9593 2.33206,-4.87174 8.97746,-11.23892 14.81393,-14.19372 8.6025,-4.35514 21.01264,-5.80866 25.48152,-2.98449 1.21815,0.76982 2.79315,1.40711 3.5,1.4162 2.47877,0.0318 10.19546,9.21335 11.96385,14.23485 1.85868,5.27792 4.05031,7.61255 7.32133,7.79906 9.56883,0.54558 16.19884,4.11318 19.53457,10.51152 3.60494,6.91472 5.19115,13.26319 4.59986,18.40998 -0.27805,2.42021 -0.0687,5.2167 0.4653,6.21441 0.53396,0.99772 1.21924,4.17645 1.52285,7.06385 0.32474,3.08838 1.31733,6.07618 2.41087,7.25695 3.50061,3.77983 4.67404,8.10412 3.7347,13.76298 -0.47747,2.87643 -1.02148,6.63013 -1.20892,8.34154 -0.18743,1.71141 -0.83993,4.04432 -1.45001,5.18426 -0.61007,1.13993 -1.10922,3.57705 -1.10922,5.41583 0,3.9913 -2.40556,7.78825 -4.93426,7.78825 -1.00147,0 -2.38105,0.675 -3.06574,1.5 -1.5011,1.80872 -7.89539,1.93547 -10,0.19823 -2.7836,-2.29771 -4,-5.64539 -4,-11.00845 0,-4.54183 1.77948,-17.89698 3.55622,-26.68978 0.99394,-4.91882 1.87378,-13.56071 1.73079,-17 -0.34855,-8.38368 -1.49427,-14.53648 -2.84791,-15.29402 -1.8186,-1.01774 -1.79135,-4.4658 0.0609,-7.70598 3.2789,-5.73583 1.35421,-9.18632 -5.8813,-10.54371 -3.70471,-0.69501 -8.6187,1.36932 -8.6187,3.62065 0,0.56696 -2.2224,5.61909 -4.93867,11.22695 -4.09517,8.45467 -6.35819,11.66201 -13.25,18.77893 -4.57123,4.72056 -9.69832,9.38548 -11.39353,10.36649 -4.47333,2.5887 -5.42777,4.59239 -4.36654,9.16683 0.49557,2.13612 0.91176,5.60094 0.92488,7.6996 0.0131,2.09866 0.5535,4.79866 1.20084,6 3.08097,5.71771 5.64112,15.02338 4.69938,17.08141 -3.33147,7.28048 -5.58095,9.60834 -9.2488,9.57105 -3.76746,-0.0383 -5.8211,-1.48352 -7.71026,-5.42591 -0.77951,-1.62674 -2.3173,-3.20174 -3.4173,-3.5 -2.4525,-0.66498 -7.54934,-3.9787 -9.27252,-6.02854 -0.69989,-0.83256 -2.22284,-3.31375 -3.38434,-5.51375 -1.16149,-2.2 -2.41441,-4.225 -2.78425,-4.5 -0.36984,-0.275 -1.22674,-1.85 -1.90423,-3.5 -1.93206,-4.70549 -8.68801,-11.22271 -14.4204,-13.91084 -3.15148,-1.47784 -8.16366,-2.73608 -12.59616,-3.16208 -6.91244,-0.66436 -7.32909,-0.59215 -6.82465,1.18268 0.29548,1.03963 0.84875,3.46524 1.22949,5.39024 0.38074,1.925 0.95642,3.94352 1.27928,4.4856 0.32287,0.54208 0.45869,2.47534 0.30182,4.29612 -0.15687,1.82079 0.26778,5.46823 0.94368,8.10543 1.66345,6.49048 0.67843,9.78939 -3.52097,11.79195 -2.93269,1.3985 -4.03015,1.44548 -7.97375,0.34134 -2.51515,-0.7042 -4.573,-1.67188 -4.573,-2.1504 0,-0.47852 -0.5625,-0.87059 -1.25,-0.87126 -2.35801,-0.002 -6.52519,-4.54067 -9.65932,-10.51971 -2.41499,-4.60713 -3.37679,-8.13661 -4.1816,-15.34513 -0.57487,-5.14899 -1.49623,-10.54803 -2.04747,-11.99787 -0.92021,-2.42031 -1.08628,-2.48592 -2.02891,-0.80157 -1.17922,2.1071 -0.8093,5.51275 1.99277,18.34657 2.57184,11.77932 2.02255,28.31893 -0.94049,28.31893 -0.49401,0 -1.87638,1.125 -3.07193,2.5 -2.39552,2.75509 -4.0073,3.02545 -8.56492,1.43665 l -3.05032,-1.06334 0.54369,-7.93239 c 0.84683,-12.35492 -3.43578,-37.39787 -6.7452,-39.4432 -1.60624,-0.99272 -13.04268,11.68209 -15.5924,17.28079 -1.32214,2.90319 -2.4039,7.02124 -2.4039,9.15123 0,3.36 -0.45966,4.14392 -3.47203,5.92125 -1.98732,1.17255 -3.724,1.64084 -4.06128,1.09511 -0.32409,-0.52439 -1.66223,-0.68414 -2.97363,-0.355 -1.43802,0.36092 -3.28805,-0.0345 -4.66122,-0.99633 -3.16159,-2.21446 -3.83084,-2.01304 -3.83843,1.15523 -0.004,1.5125 -0.90066,4.1 -1.99341,5.75 -1.09275,1.65 -1.98979,3.70287 -1.99341,4.56194 -0.01,2.28408 -5.87717,6.2461 -9.11384,6.15407 -3.9778,-0.11309 -8.02019,-3.47237 -12.72181,-10.57198 -3.446,-5.20357 -4.32028,-7.61963 -5.58347,-15.42971 -0.82374,-5.09303 -1.7338,-9.64207 -2.02236,-10.10897 -0.28856,-0.4669 -0.73326,-2.81911 -0.98823,-5.22713 -1.0779,-10.1801 -3.34701,-22.04835 -4.42074,-23.12208 -0.87485,-0.87485 -1.4481,-0.86418 -2.35614,0.0439 -0.66,0.66 -2.22131,1.2 -3.46958,1.2 -2.30707,0 -8.54076,3.06052 -11.40916,5.60148 -0.86831,0.76919 -2.33081,1.39852 -3.25,1.39852 -0.91919,0 -1.67126,0.6199 -1.67126,1.37756 0,0.75765 -0.701,1.95933 -1.55778,2.67039 -2.47941,2.05773 -4.44667,7.80504 -4.38961,12.82417 0.0992,8.72771 4.13946,25.77278 8.26826,34.88226 0.85025,1.87594 0.51423,2.88317 -2.00168,6 -3.25177,4.02847 -5.51593,4.78851 -9.06919,3.0444 z m 100,-69.9723 c 1.82031,-0.93288 2.36488,-4.72668 0.91528,-6.37648 -0.45909,-0.5225 -1.64733,-3.2 -2.64053,-5.95 -2.1235,-5.87963 -3.2491,-7.5 -5.2099,-7.5 -1.17693,0 -1.39271,1.8741 -1.18014,10.25 0.14306,5.6375 0.42386,10.58915 0.62399,11.00367 0.39694,0.82216 4.70292,0.002 7.4913,-1.42719 z m 60.77482,-0.83977 c 4.69399,-2.51214 11.40255,-24.58569 8.50568,-27.98671 -0.7027,-0.825 -1.81944,-3.1875 -2.48162,-5.25 -0.66219,-2.0625 -1.75149,-3.75 -2.42067,-3.75 -0.66918,0 -3.14702,1.8 -5.5063,4 -2.35929,2.2 -4.98198,4 -5.82821,4 -1.14641,0 -1.2645,0.33026 -0.46329,1.29566 1.25085,1.50718 1.90631,14.70328 0.81781,16.46452 -0.82373,1.33282 0.98256,9.05085 2.572,10.98982 1.24185,1.51493 2.31723,1.56792 4.8046,0.23671 z m 64.72068,-13.63042 c 3.16497,-3.08433 7.442,-6.73607 9.5045,-8.11497 2.0625,-1.3789 3.75,-2.89729 3.75,-3.37421 0,-0.47691 0.86968,-0.86711 1.93261,-0.86711 2.06771,0 3.64297,-3.19749 3.16622,-6.42684 -0.34418,-2.33132 -2.8992,-6.61018 -4.96999,-8.32316 -3.30359,-2.73277 -13.50512,-0.89057 -18.12884,3.27372 -1.375,1.23838 -3.5125,2.55747 -4.75,2.93132 -1.2375,0.37386 -2.25,1.34234 -2.25,2.15219 0,0.80984 -0.81628,3.14202 -1.81395,5.18261 -1.24468,2.54579 -1.75571,5.63639 -1.62838,9.84793 0.20234,6.69223 0.80173,8.36223 3.00135,8.36223 0.79254,0 1.44098,0.49878 1.44098,1.10841 0,2.41723 5.24195,-0.38881 10.7455,-5.75212 z m 86.7545,-78.31953 c -1.1,-0.46006 -3.51392,-2.41852 -5.36428,-4.35213 -2.84456,-2.97255 -3.37235,-4.26248 -3.41653,-8.35014 -0.0887,-8.20719 8.67663,-22.33449 13.85754,-22.33449 0.7828,0 1.42327,-0.39752 1.42327,-0.88337 0,-0.48585 0.7875,-1.16819 1.75,-1.5163 0.9625,-0.34811 4,-1.978 6.75,-3.62197 5.92806,-3.54385 5.70606,-3.44173 11.78495,-5.42066 6.55257,-2.13314 11.46196,-2.05409 11.94364,0.1923 0.51274,2.39124 -3.99126,8.2783 -5.80189,7.5835 -0.86312,-0.33121 -1.4267,0.0742 -1.4267,1.02618 0,0.86551 -1.4625,3.05736 -3.25,4.87077 -5.41631,5.49484 -10.92018,14.32585 -14.19098,22.76955 -1.19271,3.07903 -4.17231,7.34542 -5.59126,8.00592 -0.80727,0.37578 -2.47415,1.20317 -3.70419,1.83865 -1.23004,0.63549 -2.35504,1.12691 -2.5,1.09204 -0.14496,-0.0349 -1.16357,-0.43979 -2.26357,-0.89985 z"
       id="path2996"
       inkscape:connector-curvature="0" />
  </g>
</svg>
